<?xml version="1.0" encoding="UTF-8" standalone="no"?>

<svg xmlns="http://www.w3.org/2000/svg" version="1.1" viewBox="0.00 0.00 1773.00 1773.00">
<path fill="currentColor" d="&#xA;  M 1727.15 898.15&#xA;  Q 1704.99 929.75 1670.43 946.89&#xA;  C 1643.52 960.24 1613.17 964.80 1583.09 962.48&#xA;  C 1556.79 960.44 1529.72 951.54 1507.10 937.87&#xA;  C 1488.89 926.86 1472.80 913.60 1459.82 897.40&#xA;  C 1446.03 880.17 1435.06 860.98 1428.49 839.60&#xA;  C 1423.39 822.97 1419.98 798.03 1416.39 782.38&#xA;  Q 1400.77 714.34 1371.90 655.57&#xA;  Q 1363.84 639.16 1350.36 616.00&#xA;  Q 1339.99 598.18 1328.36 581.65&#xA;  Q 1318.03 566.98 1304.07 549.14&#xA;  Q 1292.67 534.57 1282.64 523.96&#xA;  C 1264.79 505.09 1248.20 488.01 1229.37 471.85&#xA;  Q 1228.17 470.82 1209.66 455.75&#xA;  C 1190.35 440.02 1167.30 424.67 1148.05 413.26&#xA;  Q 1118.96 396.02 1080.83 379.40&#xA;  Q 1077.51 377.96 1052.28 368.71&#xA;  Q 1035.33 362.49 1023.40 359.07&#xA;  Q 983.48 347.63 943.76 342.72&#xA;  Q 942.89 342.61 922.25 340.64&#xA;  Q 909.84 339.45 900.71 339.26&#xA;  Q 867.68 338.58 848.78 340.12&#xA;  C 815.85 342.80 784.14 347.30 752.65 354.90&#xA;  Q 712.41 364.60 671.63 380.72&#xA;  Q 648.24 389.96 626.58 401.20&#xA;  Q 601.54 414.18 583.43 425.45&#xA;  Q 572.78 432.07 552.13 447.02&#xA;  C 527.33 464.96 504.58 485.01 484.00 506.01&#xA;  Q 474.65 515.55 463.95 527.95&#xA;  C 418.11 581.09 383.76 644.29 363.12 711.12&#xA;  Q 351.43 748.96 344.93 794.25&#xA;  Q 336.31 854.23 341.04 914.54&#xA;  C 342.79 936.83 346.42 958.24 350.83 981.21&#xA;  Q 353.89 997.13 356.68 1007.36&#xA;  C 368.28 1049.83 384.21 1090.43 406.53 1129.74&#xA;  Q 441.40 1191.11 491.64 1243.12&#xA;  Q 529.00 1281.80 570.31 1312.19&#xA;  Q 601.29 1334.98 635.82 1353.69&#xA;  C 717.74 1398.08 808.51 1423.68 901.27 1424.87&#xA;  Q 926.90 1425.20 933.73 1425.46&#xA;  C 966.09 1426.70 995.89 1435.84 1022.57 1453.29&#xA;  Q 1035.02 1461.44 1043.12 1468.63&#xA;  Q 1056.09 1480.14 1067.60 1496.44&#xA;  Q 1090.96 1529.54 1096.99 1569.58&#xA;  C 1103.45 1612.47 1093.82 1656.65 1069.30 1692.31&#xA;  Q 1062.95 1701.55 1051.81 1713.41&#xA;  C 1028.65 1738.08 997.41 1753.00 965.04 1760.32&#xA;  Q 963.10 1760.76 949.44 1762.83&#xA;  C 930.54 1765.70 911.61 1764.45 892.41 1764.23&#xA;  Q 872.40 1763.99 845.47 1762.31&#xA;  Q 826.97 1761.15 800.51 1758.42&#xA;  Q 782.53 1756.56 752.96 1751.84&#xA;  Q 707.30 1744.54 660.56 1731.94&#xA;  Q 636.12 1725.35 615.44 1718.31&#xA;  Q 596.64 1711.91 560.36 1697.91&#xA;  C 552.62 1694.92 541.14 1689.99 532.50 1685.93&#xA;  Q 520.03 1680.08 494.96 1667.54&#xA;  C 466.02 1653.06 437.37 1635.78 410.31 1618.26&#xA;  Q 399.40 1611.19 375.98 1594.17&#xA;  Q 355.91 1579.57 342.58 1568.69&#xA;  Q 305.46 1538.39 272.46 1505.88&#xA;  Q 192.13 1426.75 134.28 1329.23&#xA;  Q 101.55 1274.06 78.08 1215.40&#xA;  Q 35.54 1109.04 23.93 995.07&#xA;  Q 23.13 987.22 21.05 960.74&#xA;  C 19.56 941.68 19.28 927.67 18.48 904.67&#xA;  Q 18.05 892.47 18.25 886.90&#xA;  C 18.52 879.04 17.94 872.54 18.24 863.05&#xA;  Q 19.49 823.93 19.96 815.76&#xA;  Q 25.11 726.56 47.89 637.69&#xA;  C 67.35 561.77 98.46 485.98 139.74 417.47&#xA;  Q 165.24 375.14 193.09 338.57&#xA;  Q 200.99 328.20 219.74 306.10&#xA;  Q 233.49 289.90 247.92 274.98&#xA;  Q 282.11 239.65 317.69 210.00&#xA;  C 359.85 174.89 404.51 144.71 453.06 117.83&#xA;  Q 561.25 57.95 682.32 30.86&#xA;  Q 745.48 16.73 813.75 11.57&#xA;  Q 820.22 11.08 846.44 9.67&#xA;  Q 873.28 8.22 906.16 9.44&#xA;  Q 915.79 9.80 923.30 10.53&#xA;  C 931.01 11.27 938.45 11.45 946.17 12.07&#xA;  Q 981.41 14.87 1019.50 21.02&#xA;  Q 1054.77 26.72 1085.74 34.79&#xA;  C 1160.88 54.37 1229.92 81.94 1295.82 119.19&#xA;  Q 1307.31 125.68 1329.34 139.24&#xA;  C 1362.31 159.53 1392.84 181.77 1423.89 206.85&#xA;  Q 1498.22 266.88 1556.00 338.24&#xA;  Q 1573.95 360.41 1597.06 392.50&#xA;  C 1618.19 421.83 1637.33 454.04 1653.19 483.27&#xA;  Q 1665.03 505.12 1680.73 539.25&#xA;  Q 1699.34 579.73 1714.67 626.28&#xA;  Q 1729.12 670.12 1738.39 710.28&#xA;  Q 1746.37 744.84 1752.37 784.46&#xA;  Q 1753.44 791.53 1754.23 809.20&#xA;  Q 1754.91 824.54 1750.76 843.27&#xA;  C 1746.41 862.87 1738.67 881.72 1727.15 898.15&#xA;  Z"></path>
<path fill="currentColor" d="&#xA;  M 1047.72 1239.76&#xA;  A 1.34 1.33 -24.1 0 1 1047.05 1241.49&#xA;  Q 1025.23 1251.69 1004.02 1258.58&#xA;  Q 983.22 1265.35 959.20 1270.34&#xA;  Q 934.81 1275.41 906.51 1277.01&#xA;  Q 842.97 1280.62 781.14 1264.35&#xA;  Q 751.53 1256.55 728.32 1246.17&#xA;  C 705.17 1235.81 680.86 1222.68 659.06 1207.08&#xA;  Q 600.83 1165.43 559.80 1107.22&#xA;  Q 539.80 1078.85 525.32 1046.97&#xA;  C 506.60 1005.73 494.53 960.77 491.05 915.51&#xA;  Q 489.83 899.55 490.43 875.20&#xA;  C 491.25 842.56 496.26 809.15 505.67 777.37&#xA;  Q 515.71 743.46 531.02 711.99&#xA;  Q 536.92 699.88 550.15 678.22&#xA;  Q 560.83 660.74 572.18 646.29&#xA;  C 603.69 606.21 642.11 571.71 685.90 546.43&#xA;  Q 712.78 530.93 738.70 520.75&#xA;  Q 802.50 495.70 870.49 493.59&#xA;  C 943.66 491.32 1015.52 509.38 1079.04 546.05&#xA;  C 1139.30 580.84 1189.12 631.83 1223.99 692.27&#xA;  Q 1227.81 698.89 1234.54 712.51&#xA;  Q 1240.53 724.61 1244.15 733.21&#xA;  Q 1290.69 843.64 1268.13 962.84&#xA;  C 1267.40 966.72 1265.87 974.53 1262.75 976.62&#xA;  A 1.17 1.16 35.9 0 1 1261.80 976.77&#xA;  Q 1258.31 975.85 1256.38 975.13&#xA;  Q 1238.33 968.41 1194.57 952.60&#xA;  Q 1159.33 939.87 1146.23 934.96&#xA;  C 1122.23 925.97 1104.24 920.00 1081.80 911.38&#xA;  Q 1071.45 907.40 1024.00 890.49&#xA;  Q 1013.91 886.90 923.24 853.01&#xA;  Q 913.06 849.21 900.22 850.93&#xA;  Q 879.27 853.74 867.64 869.28&#xA;  Q 858.31 881.75 857.13 897.16&#xA;  Q 855.99 912.23 864.01 926.23&#xA;  C 868.32 933.75 871.05 938.98 873.79 943.52&#xA;  Q 885.55 962.98 903.20 993.44&#xA;  C 917.38 1017.93 929.98 1038.97 945.57 1065.74&#xA;  C 957.54 1086.28 971.78 1109.81 985.61 1133.80&#xA;  Q 992.51 1145.77 1001.55 1161.10&#xA;  Q 1036.48 1220.33 1044.20 1233.07&#xA;  Q 1046.49 1236.85 1047.72 1239.76&#xA;  Z"></path>
<path fill="currentColor" d="&#xA;  M 1466.40 1324.46&#xA;  A 0.89 0.89 0.0 0 0 1466.43 1325.80&#xA;  C 1470.08 1328.83 1473.91 1332.29 1477.02 1334.68&#xA;  Q 1483.07 1339.33 1523.22 1371.08&#xA;  Q 1532.36 1378.31 1535.27 1388.05&#xA;  C 1539.60 1402.56 1533.72 1418.63 1519.98 1425.72&#xA;  Q 1507.61 1432.09 1494.85 1427.59&#xA;  Q 1490.12 1425.92 1478.79 1416.62&#xA;  Q 1468.69 1408.33 1463.51 1404.27&#xA;  Q 1459.81 1401.37 1446.17 1390.04&#xA;  Q 1436.13 1381.70 1425.63 1374.07&#xA;  A 1.20 1.20 0.0 0 0 1423.76 1374.77&#xA;  Q 1413.09 1420.53 1406.04 1451.21&#xA;  Q 1395.92 1495.19 1381.04 1560.03&#xA;  Q 1379.38 1567.23 1374.64 1573.88&#xA;  C 1364.16 1588.56 1341.10 1591.30 1326.96 1580.71&#xA;  Q 1320.19 1575.64 1315.40 1567.37&#xA;  Q 1310.33 1558.62 1305.66 1550.60&#xA;  C 1298.88 1538.95 1292.00 1527.91 1285.77 1516.91&#xA;  Q 1279.01 1504.98 1275.95 1499.80&#xA;  Q 1262.53 1477.07 1248.80 1453.26&#xA;  Q 1243.15 1443.46 1229.60 1420.63&#xA;  Q 1218.07 1401.20 1210.37 1387.98&#xA;  C 1188.08 1349.70 1155.23 1294.28 1124.62 1241.45&#xA;  Q 1113.66 1222.54 1102.43 1203.63&#xA;  Q 1098.30 1196.70 1091.22 1184.73&#xA;  Q 1087.50 1178.45 1067.94 1144.85&#xA;  C 1043.76 1103.31 1022.05 1066.94 993.84 1018.65&#xA;  Q 991.97 1015.45 989.95 1011.08&#xA;  C 985.93 1002.43 986.22 992.13 989.53 983.57&#xA;  C 995.47 968.23 1011.34 960.39 1027.51 962.22&#xA;  Q 1028.98 962.39 1035.91 964.41&#xA;  Q 1039.27 965.39 1044.08 967.24&#xA;  Q 1061.72 974.01 1076.24 979.25&#xA;  C 1125.44 997.01 1196.59 1023.26 1256.95 1044.93&#xA;  C 1282.09 1053.96 1310.90 1064.70 1338.11 1074.54&#xA;  Q 1444.59 1113.06 1540.38 1147.73&#xA;  Q 1582.57 1163.01 1625.75 1178.71&#xA;  Q 1641.02 1184.26 1644.97 1187.19&#xA;  Q 1656.27 1195.59 1657.92 1211.04&#xA;  Q 1659.98 1230.44 1644.75 1242.96&#xA;  Q 1641.22 1245.86 1632.15 1249.89&#xA;  C 1592.72 1267.39 1568.18 1278.72 1529.25 1295.97&#xA;  Q 1481.62 1317.07 1467.54 1323.78&#xA;  Q 1466.72 1324.17 1466.40 1324.46&#xA;  Z"></path>
</svg>