<?xml version="1.0" encoding="UTF-8" standalone="no"?>

<svg xmlns="http://www.w3.org/2000/svg" version="1.1" viewBox="0.00 0.00 1620.00 321.00">
<path fill="#000000" d="&#xA;  M 323.66 172.90&#xA;  C 306.49 182.06 285.17 174.46 277.42 156.45&#xA;  C 274.26 149.09 274.30 140.11 271.08 131.83&#xA;  Q 260.76 105.30 239.92 89.56&#xA;  C 218.43 73.32 189.20 64.79 162.51 71.53&#xA;  Q 130.74 79.54 111.42 104.91&#xA;  C 95.64 125.62 91.86 153.46 97.72 178.75&#xA;  C 99.26 185.37 101.49 190.44 104.36 196.49&#xA;  C 118.18 225.61 147.18 246.90 179.42 250.77&#xA;  C 183.60 251.27 188.72 251.34 192.81 251.32&#xA;  Q 195.59 251.31 198.13 251.89&#xA;  C 210.29 254.67 219.51 262.35 223.57 274.21&#xA;  C 228.75 289.37 222.23 308.15 205.98 314.44&#xA;  Q 198.23 317.44 190.73 317.30&#xA;  Q 164.32 316.80 138.89 307.32&#xA;  Q 96.02 291.34 66.73 255.49&#xA;  C 40.72 223.66 27.77 183.47 31.03 142.70&#xA;  C 34.86 94.85 60.43 50.99 101.97 26.09&#xA;  Q 120.77 14.82 144.50 9.45&#xA;  Q 191.32 -1.16 236.94 16.08&#xA;  C 272.78 29.62 302.28 54.90 321.08 88.19&#xA;  Q 335.97 114.55 339.10 143.48&#xA;  C 340.32 154.80 334.22 167.26 323.66 172.90&#xA;  Z"></path>
<path fill="#000000" d="&#xA;  M 255.03 175.39&#xA;  A 0.39 0.38 16.1 0 1 254.51 175.67&#xA;  Q 225.37 164.59 203.68 155.93&#xA;  Q 200.41 154.63 198.09 153.98&#xA;  C 192.78 152.51 186.90 154.91 184.50 160.06&#xA;  Q 181.32 166.87 185.55 174.01&#xA;  Q 200.32 198.90 215.07 224.48&#xA;  A 1.14 1.13 -27.3 0 1 214.56 226.07&#xA;  C 186.43 239.12 153.18 228.99 133.17 206.51&#xA;  C 125.79 198.22 119.61 186.39 117.11 175.13&#xA;  Q 112.37 153.86 120.16 133.42&#xA;  C 136.38 90.90 187.16 77.20 224.10 101.45&#xA;  Q 248.40 117.40 254.86 146.67&#xA;  Q 258.00 160.91 255.03 175.39&#xA;  Z"></path>
<path fill="#000000" d="&#xA;  M 552.66 161.33&#xA;  A 1.56 1.54 -4.7 0 1 551.03 159.96&#xA;  Q 550.68 156.79 550.63 156.41&#xA;  C 548.67 141.39 527.42 139.81 521.76 151.63&#xA;  Q 520.04 155.22 520.10 167.64&#xA;  Q 520.22 194.40 520.27 195.75&#xA;  Q 520.58 204.66 526.55 208.52&#xA;  C 535.87 214.55 548.64 210.60 550.65 198.75&#xA;  C 551.50 193.80 550.91 192.66 556.28 192.98&#xA;  Q 568.14 193.69 581.66 195.27&#xA;  A 2.13 2.12 -87.8 0 1 583.53 197.30&#xA;  C 583.99 208.87 578.51 220.81 570.03 227.89&#xA;  C 556.88 238.89 536.32 241.15 519.95 236.82&#xA;  Q 499.79 231.49 491.02 213.25&#xA;  C 486.97 204.81 487.04 196.21 487.00 184.73&#xA;  Q 486.94 167.62 487.14 160.06&#xA;  Q 487.75 135.91 507.42 123.97&#xA;  C 520.47 116.04 540.12 114.89 554.42 119.45&#xA;  C 570.08 124.45 580.20 135.54 583.31 151.97&#xA;  Q 583.93 155.26 583.33 157.76&#xA;  A 2.45 2.45 0.0 0 1 581.10 159.62&#xA;  L 552.66 161.33&#xA;  Z"></path>
<path fill="#000000" d="&#xA;  M 1431.33 196.29&#xA;  A 1.15 1.15 0.0 0 0 1430.18 195.11&#xA;  Q 1419.95 195.17 1415.52 195.08&#xA;  Q 1412.61 195.02 1412.40 191.83&#xA;  Q 1412.27 189.76 1412.35 172.84&#xA;  Q 1412.37 169.74 1415.81 169.72&#xA;  Q 1435.65 169.60 1456.19 169.81&#xA;  C 1459.76 169.85 1463.28 169.56 1463.31 173.22&#xA;  Q 1463.33 176.83 1463.37 191.26&#xA;  Q 1463.40 202.87 1461.54 209.12&#xA;  C 1453.77 235.22 1424.30 242.65 1400.57 237.35&#xA;  Q 1385.02 233.87 1375.09 221.93&#xA;  C 1368.29 213.75 1366.22 204.35 1366.10 193.29&#xA;  Q 1366.03 186.42 1366.06 161.75&#xA;  C 1366.08 147.40 1371.22 134.67 1383.09 126.24&#xA;  Q 1392.86 119.30 1404.73 117.59&#xA;  C 1419.38 115.47 1432.39 117.06 1444.96 124.60&#xA;  C 1456.67 131.62 1463.06 143.72 1462.96 157.33&#xA;  A 2.01 2.00 -0.6 0 1 1461.00 159.32&#xA;  L 1432.18 159.99&#xA;  A 1.56 1.55 84.9 0 1 1430.61 158.67&#xA;  Q 1430.11 155.37 1429.63 153.90&#xA;  C 1426.51 144.46 1415.79 141.68 1407.43 145.66&#xA;  C 1400.72 148.85 1398.50 155.63 1398.74 162.75&#xA;  Q 1398.74 162.81 1398.73 165.76&#xA;  Q 1398.63 184.65 1398.61 187.76&#xA;  C 1398.54 197.73 1399.28 206.16 1408.39 209.92&#xA;  C 1419.46 214.50 1430.96 209.39 1431.33 196.29&#xA;  Z"></path>
<path fill="#000000" d="&#xA;  M 1539.01 159.73&#xA;  A 1.78 1.76 6.9 0 1 1537.99 158.44&#xA;  C 1536.81 152.15 1535.04 147.20 1528.30 145.01&#xA;  C 1522.54 143.14 1513.12 143.01 1509.39 148.60&#xA;  C 1506.92 152.32 1508.87 156.91 1512.54 159.01&#xA;  Q 1516.45 161.25 1521.91 162.84&#xA;  Q 1540.02 168.12 1547.23 170.99&#xA;  C 1559.73 175.95 1569.75 184.21 1570.90 198.55&#xA;  C 1573.72 233.55 1536.75 242.69 1509.54 237.65&#xA;  Q 1498.11 235.54 1489.17 228.85&#xA;  Q 1475.34 218.51 1475.10 199.41&#xA;  Q 1475.04 195.06 1479.24 195.12&#xA;  Q 1490.75 195.27 1505.95 195.29&#xA;  A 1.58 1.58 0.0 0 1 1507.53 196.79&#xA;  Q 1508.08 207.22 1517.87 210.35&#xA;  C 1524.40 212.43 1535.33 212.30 1537.74 204.26&#xA;  C 1539.47 198.51 1532.25 195.22 1527.66 193.84&#xA;  C 1514.63 189.90 1502.10 186.67 1490.79 180.00&#xA;  C 1480.02 173.64 1474.95 163.15 1476.11 150.67&#xA;  C 1477.12 139.66 1482.94 129.86 1492.69 124.18&#xA;  Q 1500.34 119.72 1507.31 118.33&#xA;  C 1522.57 115.28 1539.31 116.02 1552.73 124.35&#xA;  Q 1569.41 134.72 1570.45 155.23&#xA;  Q 1570.72 160.47 1565.77 160.15&#xA;  Q 1564.82 160.08 1540.75 160.15&#xA;  Q 1539.98 160.15 1539.01 159.73&#xA;  Z"></path>
<path fill="#000000" d="&#xA;  M 478.23 222.52&#xA;  A 1.58 1.58 0.0 0 1 479.36 224.01&#xA;  Q 479.48 231.11 479.41 243.50&#xA;  Q 479.40 246.40 476.23 246.55&#xA;  C 467.08 246.97 456.85 247.06 450.01 239.44&#xA;  Q 448.29 237.52 447.06 236.25&#xA;  A 1.86 1.86 0.0 0 0 445.16 235.77&#xA;  C 419.07 243.91 387.41 236.03 379.12 206.88&#xA;  Q 377.41 200.84 377.52 184.49&#xA;  Q 377.65 167.21 377.59 161.25&#xA;  C 377.45 145.50 383.81 132.31 397.15 124.18&#xA;  Q 405.85 118.88 415.61 117.61&#xA;  C 428.14 115.98 440.85 116.75 452.09 122.97&#xA;  Q 467.97 131.77 472.42 149.88&#xA;  Q 473.85 155.67 473.78 163.48&#xA;  Q 473.51 197.12 473.50 197.33&#xA;  Q 472.93 209.03 467.95 218.04&#xA;  A 1.13 1.12 -67.5 0 0 468.61 219.66&#xA;  L 478.23 222.52&#xA;  Z&#xA;  M 441.0033 158.3966&#xA;  A 14.61 14.61 0.0 0 0 426.3424 143.8377&#xA;  L 424.9224 143.8427&#xA;  A 14.61 14.61 0.0 0 0 410.3635 158.5036&#xA;  L 410.4967 196.6634&#xA;  A 14.61 14.61 0.0 0 0 425.1576 211.2223&#xA;  L 426.5776 211.2173&#xA;  A 14.61 14.61 0.0 0 0 441.1365 196.5564&#xA;  L 441.0033 158.3966&#xA;  Z"></path>
<path fill="#000000" d="&#xA;  M 630.85 196.95&#xA;  Q 630.86 215.26 630.88 233.92&#xA;  C 630.88 236.70 629.16 237.44 626.55 237.47&#xA;  Q 605.63 237.70 600.73 237.31&#xA;  Q 597.61 237.06 597.60 234.00&#xA;  Q 597.51 155.21 597.60 122.02&#xA;  C 597.61 118.50 599.39 118.13 602.59 118.12&#xA;  Q 644.25 117.98 654.24 118.11&#xA;  C 666.99 118.27 680.47 124.51 687.37 135.60&#xA;  C 695.11 148.02 695.55 165.02 688.18 178.08&#xA;  C 681.38 190.13 665.82 196.20 652.28 196.25&#xA;  Q 636.97 196.30 631.59 196.22&#xA;  A 0.73 0.73 0.0 0 0 630.85 196.95&#xA;  Z&#xA;  M 630.79 145.98&#xA;  L 630.87 169.48&#xA;  A 0.80 0.80 0.0 0 0 631.67 170.28&#xA;  L 648.39 170.22&#xA;  A 12.44 11.83 -0.2 0 0 660.79 158.35&#xA;  L 660.79 156.91&#xA;  A 12.44 11.83 -0.2 0 0 648.31 145.12&#xA;  L 631.59 145.18&#xA;  A 0.80 0.80 0.0 0 0 630.79 145.98&#xA;  Z"></path>
<path fill="#000000" d="&#xA;  M 831.27 176.52&#xA;  A 0.63 0.62 60.4 0 0 830.11 176.20&#xA;  Q 825.39 184.05 816.60 199.57&#xA;  Q 815.33 201.81 813.01 201.80&#xA;  Q 806.29 201.78 795.08 201.78&#xA;  A 3.62 3.62 0.0 0 1 791.97 199.98&#xA;  Q 787.36 192.05 781.13 181.63&#xA;  Q 780.45 180.49 779.23 180.72&#xA;  Q 777.42 181.06 777.42 183.77&#xA;  Q 777.42 224.04 777.37 233.83&#xA;  Q 777.36 235.51 776.42 236.65&#xA;  A 1.68 1.63 11.3 0 1 775.58 237.19&#xA;  Q 774.32 237.53 771.75 237.53&#xA;  Q 761.24 237.57 747.73 237.47&#xA;  C 743.64 237.44 744.12 233.88 744.12 230.08&#xA;  Q 744.04 162.45 744.13 121.74&#xA;  Q 744.13 118.16 747.95 118.12&#xA;  Q 761.55 117.95 773.74 118.19&#xA;  Q 776.83 118.25 778.52 120.98&#xA;  Q 790.97 141.04 803.55 162.46&#xA;  A 0.65 0.65 0.0 0 0 804.66 162.47&#xA;  Q 817.17 141.84 828.33 123.33&#xA;  C 830.44 119.83 831.68 118.15 835.75 118.10&#xA;  Q 852.39 117.88 861.25 118.25&#xA;  Q 864.38 118.38 864.38 121.76&#xA;  Q 864.34 178.87 864.44 234.39&#xA;  Q 864.45 237.29 861.37 237.36&#xA;  Q 847.72 237.68 838.90 237.53&#xA;  C 834.50 237.45 831.32 238.17 831.34 233.04&#xA;  Q 831.51 199.49 831.27 176.52&#xA;  Z"></path>
<path fill="#000000" d="&#xA;  M 914.98 162.87&#xA;  A 0.64 0.63 89.5 0 0 915.61 163.50&#xA;  Q 919.87 163.52 945.24 163.58&#xA;  C 948.66 163.59 952.23 163.18 952.36 167.19&#xA;  Q 952.51 171.76 952.36 185.73&#xA;  C 952.33 188.47 951.58 190.48 948.62 190.50&#xA;  Q 932.20 190.63 915.52 190.56&#xA;  A 0.92 0.92 0.0 0 0 914.60 191.50&#xA;  L 915.02 209.00&#xA;  A 0.98 0.98 0.0 0 0 916.00 209.96&#xA;  Q 920.72 209.98 967.50 210.07&#xA;  Q 970.91 210.07 970.93 214.25&#xA;  Q 971.04 233.34 970.87 234.46&#xA;  C 970.44 237.22 968.76 237.48 966.24 237.49&#xA;  Q 908.57 237.59 885.93 237.50&#xA;  C 882.75 237.49 881.98 235.69 881.98 232.71&#xA;  Q 881.99 154.99 881.98 121.98&#xA;  C 881.98 117.78 885.34 118.09 888.95 118.08&#xA;  Q 941.04 118.10 966.36 118.04&#xA;  Q 970.89 118.02 970.87 122.18&#xA;  Q 970.82 134.02 970.75 142.23&#xA;  Q 970.72 145.14 967.84 145.21&#xA;  Q 958.07 145.45 915.31 145.31&#xA;  A 0.74 0.74 0.0 0 0 914.58 146.07&#xA;  L 914.98 162.87&#xA;  Z"></path>
<path fill="#000000" d="&#xA;  M 1018.36 162.86&#xA;  A 0.64 0.63 89.5 0 0 1018.99 163.49&#xA;  Q 1023.26 163.51 1048.63 163.59&#xA;  C 1052.05 163.60 1055.62 163.19 1055.75 167.20&#xA;  Q 1055.90 171.78 1055.74 185.75&#xA;  C 1055.71 188.49 1054.96 190.50 1052.00 190.52&#xA;  Q 1035.57 190.64 1018.89 190.56&#xA;  A 0.92 0.92 0.0 0 0 1017.97 191.50&#xA;  L 1018.38 209.00&#xA;  A 0.98 0.98 0.0 0 0 1019.36 209.96&#xA;  Q 1024.08 209.99 1070.87 210.10&#xA;  Q 1074.28 210.11 1074.30 214.29&#xA;  Q 1074.39 233.38 1074.22 234.50&#xA;  C 1073.79 237.26 1072.11 237.52 1069.59 237.53&#xA;  Q 1011.91 237.59 989.26 237.49&#xA;  C 986.08 237.48 985.31 235.68 985.32 232.70&#xA;  Q 985.37 154.96 985.38 121.94&#xA;  C 985.38 117.74 988.75 118.05 992.36 118.05&#xA;  Q 1044.46 118.10 1069.78 118.05&#xA;  Q 1074.31 118.04 1074.29 122.20&#xA;  Q 1074.23 134.04 1074.16 142.25&#xA;  Q 1074.13 145.16 1071.25 145.23&#xA;  Q 1061.47 145.46 1018.71 145.30&#xA;  A 0.74 0.74 0.0 0 0 1017.97 146.06&#xA;  L 1018.36 162.86&#xA;  Z"></path>
<path fill="#000000" d="&#xA;  M 1117.03 146.29&#xA;  A 0.94 0.93 -0.3 0 0 1116.08 145.36&#xA;  Q 1100.40 145.48 1088.28 145.30&#xA;  C 1085.44 145.26 1084.96 143.54 1084.96 140.93&#xA;  Q 1084.97 126.73 1084.92 122.99&#xA;  Q 1084.87 118.07 1089.49 118.07&#xA;  Q 1163.89 118.10 1177.77 118.06&#xA;  C 1182.63 118.05 1183.37 118.95 1183.38 123.44&#xA;  Q 1183.43 138.14 1183.35 141.53&#xA;  C 1183.25 145.92 1179.99 145.38 1176.23 145.39&#xA;  Q 1163.21 145.42 1151.30 145.39&#xA;  A 0.85 0.85 0.0 0 0 1150.44 146.24&#xA;  Q 1150.30 189.19 1150.41 234.06&#xA;  C 1150.42 236.77 1148.47 237.45 1146.00 237.47&#xA;  Q 1125.17 237.69 1119.97 237.33&#xA;  Q 1117.10 237.14 1117.10 233.99&#xA;  Q 1117.04 153.11 1117.03 146.29&#xA;  Z"></path>
<rect fill="#000000" x="1197.43" y="118.09" width="33.06" height="119.44" rx="3.51"></rect>
<path fill="#000000" d="&#xA;  M 1281.23 176.62&#xA;  A 0.39 0.39 0.0 0 0 1280.51 176.83&#xA;  Q 1280.68 206.90 1280.64 230.21&#xA;  C 1280.63 234.43 1281.30 237.47 1276.29 237.51&#xA;  Q 1261.42 237.62 1251.57 237.48&#xA;  C 1247.24 237.42 1247.47 233.90 1247.47 230.50&#xA;  Q 1247.57 141.75 1247.54 121.79&#xA;  C 1247.53 118.88 1249.19 118.20 1251.87 118.16&#xA;  Q 1263.95 117.98 1276.77 118.17&#xA;  Q 1279.31 118.21 1280.69 120.07&#xA;  Q 1282.10 121.99 1284.17 125.32&#xA;  Q 1303.81 157.04 1316.75 178.23&#xA;  A 0.56 0.56 0.0 0 0 1317.78 177.94&#xA;  Q 1317.79 177.49 1317.79 121.76&#xA;  Q 1317.79 118.28 1321.53 118.20&#xA;  Q 1334.05 117.94 1347.26 118.16&#xA;  C 1350.15 118.21 1350.61 119.96 1350.65 122.59&#xA;  C 1351.08 155.58 1350.70 191.45 1350.78 231.50&#xA;  C 1350.79 234.11 1351.06 237.39 1347.22 237.43&#xA;  Q 1333.18 237.59 1322.99 237.57&#xA;  Q 1319.18 237.56 1317.41 234.65&#xA;  Q 1296.93 201.08 1281.23 176.62&#xA;  Z"></path>
<path fill="#000000" d="&#xA;  M 279.07 254.93&#xA;  Q 277.40 263.13 274.84 275.32&#xA;  C 274.28 278.01 273.40 280.96 271.31 282.59&#xA;  C 266.52 286.34 261.30 284.08 258.48 279.26&#xA;  Q 207.03 191.45 193.75 168.49&#xA;  C 192.53 166.39 194.14 163.34 196.71 164.06&#xA;  Q 198.72 164.62 201.18 165.57&#xA;  Q 218.41 172.22 316.02 209.99&#xA;  C 320.18 211.60 323.26 215.14 322.59 219.65&#xA;  C 321.84 224.66 317.70 226.73 313.28 228.51&#xA;  Q 305.15 231.79 296.59 234.86&#xA;  A 0.84 0.84 0.0 0 0 296.35 236.30&#xA;  Q 315.05 251.50 331.76 265.92&#xA;  C 343.64 276.16 329.76 296.13 317.00 285.72&#xA;  Q 304.22 275.30 280.19 254.54&#xA;  A 0.69 0.69 0.0 0 0 279.07 254.93&#xA;  Z"></path>
</svg>