<?xml version="1.0" encoding="UTF-8" standalone="no"?>

<svg xmlns="http://www.w3.org/2000/svg" version="1.1" viewBox="0.00 0.00 2160.00 1068.00">
<path fill="currentColor" d="&#xA;  M 298.65 312.40&#xA;  C 295.80 315.49 291.16 321.08 288.55 324.29&#xA;  Q 258.47 361.13 242.03 405.24&#xA;  Q 238.11 415.76 233.17 431.91&#xA;  Q 228.91 445.84 226.72 459.21&#xA;  C 217.56 515.11 221.14 570.05 239.72 622.79&#xA;  C 259.82 679.83 295.71 730.30 341.99 769.46&#xA;  Q 366.99 790.61 394.45 805.69&#xA;  C 433.69 827.25 477.52 840.13 521.66 844.07&#xA;  C 530.18 844.83 539.61 845.01 549.86 845.24&#xA;  C 577.50 845.85 606.67 858.64 624.80 880.12&#xA;  Q 645.78 904.98 650.14 936.55&#xA;  C 654.92 971.20 640.82 1005.95 613.08 1027.06&#xA;  C 593.92 1041.64 568.68 1049.74 544.00 1048.26&#xA;  Q 493.49 1045.22 449.13 1035.56&#xA;  Q 407.88 1026.57 361.30 1008.43&#xA;  Q 359.02 1007.54 344.12 1001.00&#xA;  C 329.45 994.55 313.72 986.23 300.53 979.23&#xA;  Q 297.34 977.54 285.88 970.58&#xA;  C 275.44 964.24 269.05 959.67 257.19 951.46&#xA;  C 217.80 924.20 182.40 890.94 150.60 853.19&#xA;  C 145.56 847.21 139.96 839.83 135.16 833.60&#xA;  Q 120.59 814.65 106.67 792.85&#xA;  Q 98.16 779.51 84.70 754.84&#xA;  Q 73.83 734.90 65.82 715.25&#xA;  Q 54.51 687.49 48.95 670.86&#xA;  Q 40.24 644.84 33.62 612.21&#xA;  Q 30.35 596.13 28.83 586.49&#xA;  Q 20.23 531.90 23.55 477.76&#xA;  Q 24.61 460.31 28.42 434.15&#xA;  C 29.39 427.48 30.70 421.49 32.58 411.77&#xA;  Q 36.30 392.47 40.91 375.47&#xA;  C 48.22 348.52 58.39 321.91 69.78 297.23&#xA;  Q 80.54 273.90 95.62 249.07&#xA;  Q 128.05 195.64 171.27 153.26&#xA;  Q 185.65 139.16 203.98 123.88&#xA;  Q 220.72 109.93 239.26 97.61&#xA;  Q 302.90 55.32 372.35 35.93&#xA;  Q 396.83 29.10 436.40 22.47&#xA;  Q 441.56 21.61 445.14 21.44&#xA;  C 449.04 21.26 452.24 20.50 456.80 20.16&#xA;  Q 483.58 18.17 488.19 18.12&#xA;  Q 522.94 17.71 550.25 19.79&#xA;  Q 571.36 21.40 599.85 26.64&#xA;  Q 603.55 27.32 608.57 28.68&#xA;  C 612.23 29.67 615.93 30.11 620.24 31.06&#xA;  Q 657.43 39.27 694.85 54.19&#xA;  C 715.48 62.41 733.14 70.65 755.60 82.59&#xA;  C 761.03 85.47 766.77 89.33 772.67 92.45&#xA;  Q 775.36 93.88 779.48 96.45&#xA;  Q 850.97 141.08 905.34 204.91&#xA;  Q 921.51 223.89 938.13 246.88&#xA;  Q 940.22 249.78 948.94 262.93&#xA;  C 962.42 283.29 974.19 305.15 984.75 327.02&#xA;  C 997.14 352.70 1006.14 378.05 1014.72 406.25&#xA;  Q 1021.93 429.95 1026.98 455.01&#xA;  Q 1029.68 468.39 1030.09 477.07&#xA;  C 1030.77 491.14 1028.97 506.03 1023.39 519.06&#xA;  Q 1013.90 541.22 997.00 555.49&#xA;  C 985.72 565.01 970.28 572.68 955.01 575.45&#xA;  Q 926.89 580.57 901.03 571.11&#xA;  Q 876.81 562.25 859.53 542.84&#xA;  Q 846.75 528.50 838.97 507.56&#xA;  Q 836.41 500.66 833.65 487.87&#xA;  Q 832.16 481.00 828.94 468.01&#xA;  Q 818.63 426.37 797.07 388.45&#xA;  Q 777.62 354.26 752.23 326.53&#xA;  Q 712.56 283.23 660.86 255.14&#xA;  Q 653.89 251.36 637.34 243.99&#xA;  Q 610.81 232.18 580.28 225.11&#xA;  C 570.46 222.83 561.84 221.66 549.99 219.79&#xA;  C 547.27 219.36 543.59 219.42 540.35 219.01&#xA;  Q 530.01 217.73 523.25 217.74&#xA;  C 511.33 217.76 502.02 217.39 491.95 218.48&#xA;  Q 478.02 219.98 470.50 220.99&#xA;  Q 450.40 223.68 433.31 229.11&#xA;  C 422.50 232.54 412.38 235.73 400.06 240.78&#xA;  C 361.67 256.51 326.85 281.86 298.65 312.40&#xA;  Z"></path>
<path fill="currentColor" d="&#xA;  M 626.34 736.81&#xA;  A 0.35 0.35 0.0 0 1 626.18 737.34&#xA;  Q 623.12 738.47 617.05 741.39&#xA;  C 607.19 746.14 596.53 749.30 585.90 752.37&#xA;  Q 568.71 757.33 551.75 758.89&#xA;  C 528.77 761.01 505.14 759.92 482.67 754.53&#xA;  Q 455.37 747.99 433.94 737.30&#xA;  Q 415.07 727.89 395.46 713.09&#xA;  Q 377.96 699.88 362.54 681.78&#xA;  Q 345.27 661.52 334.31 641.33&#xA;  Q 314.66 605.09 308.01 562.21&#xA;  Q 306.92 555.18 306.60 548.72&#xA;  C 306.30 542.70 305.63 537.11 305.69 530.76&#xA;  Q 306.06 492.78 316.63 459.88&#xA;  Q 320.07 449.15 327.09 433.05&#xA;  Q 332.74 420.07 340.56 407.60&#xA;  Q 349.12 393.96 357.43 383.67&#xA;  Q 367.80 370.84 379.32 360.06&#xA;  Q 412.38 329.12 454.63 313.41&#xA;  C 464.00 309.93 477.16 306.19 487.27 304.07&#xA;  Q 490.20 303.45 503.73 301.57&#xA;  Q 512.80 300.30 520.34 300.14&#xA;  C 539.06 299.74 557.29 300.58 575.50 304.34&#xA;  C 582.51 305.79 588.58 307.91 597.65 310.66&#xA;  C 622.63 318.21 647.87 332.58 668.17 348.85&#xA;  C 687.38 364.24 703.58 383.18 717.01 403.73&#xA;  Q 730.59 424.50 739.46 449.55&#xA;  C 755.28 494.29 757.91 541.60 747.27 587.81&#xA;  A 0.81 0.81 0.0 0 1 746.20 588.39&#xA;  C 735.59 584.46 726.01 580.46 715.62 576.58&#xA;  Q 691.09 567.42 667.02 558.59&#xA;  Q 653.71 553.71 639.35 548.50&#xA;  Q 622.68 542.45 611.72 538.29&#xA;  Q 591.10 530.46 579.41 526.35&#xA;  C 569.77 522.96 560.04 518.62 552.38 516.12&#xA;  C 547.98 514.69 544.23 513.32 539.77 513.71&#xA;  C 522.33 515.22 511.47 534.34 519.78 550.19&#xA;  C 521.26 553.03 522.19 555.62 524.07 558.68&#xA;  C 530.72 569.54 537.28 582.44 544.00 593.81&#xA;  Q 554.47 611.54 569.61 638.41&#xA;  Q 575.72 649.23 603.23 696.53&#xA;  Q 617.42 720.92 620.43 726.20&#xA;  C 622.28 729.44 624.02 733.74 626.34 736.81&#xA;  Z"></path>
<path fill="currentColor" d="&#xA;  M 1447.72 705.37&#xA;  Q 1471.47 705.17 1487.73 705.41&#xA;  C 1496.53 705.54 1502.88 713.35 1503.01 722.05&#xA;  Q 1503.33 742.76 1503.04 760.50&#xA;  C 1502.93 767.46 1499.20 774.95 1492.34 777.32&#xA;  Q 1490.46 777.96 1484.61 777.96&#xA;  Q 1363.15 777.96 1340.88 777.99&#xA;  Q 1317.25 778.01 1306.18 776.47&#xA;  C 1290.82 774.34 1275.05 770.65 1261.56 764.40&#xA;  Q 1221.62 745.90 1201.87 706.89&#xA;  C 1189.62 682.67 1186.00 654.65 1185.55 626.25&#xA;  Q 1185.13 599.64 1185.50 546.75&#xA;  Q 1185.65 526.05 1188.56 504.02&#xA;  Q 1191.23 483.86 1198.45 463.71&#xA;  C 1210.32 430.56 1238.21 405.17 1270.82 392.82&#xA;  Q 1290.17 385.49 1311.01 383.56&#xA;  C 1337.59 381.10 1365.70 382.35 1391.68 390.07&#xA;  C 1425.34 400.08 1452.28 421.87 1466.17 453.85&#xA;  Q 1473.57 470.88 1476.58 487.46&#xA;  C 1478.26 496.70 1479.57 508.53 1479.90 520.24&#xA;  C 1480.78 551.58 1480.44 582.68 1480.28 607.49&#xA;  C 1480.12 631.78 1476.83 656.01 1466.08 677.81&#xA;  Q 1458.89 692.40 1447.09 703.82&#xA;  A 0.90 0.90 0.0 0 0 1447.72 705.37&#xA;  Z&#xA;  M 1273.80 580.13&#xA;  C 1273.73 603.04 1273.06 625.64 1275.17 647.75&#xA;  C 1276.68 663.64 1282.06 681.21 1295.64 691.15&#xA;  C 1311.01 702.40 1332.46 703.96 1350.75 700.13&#xA;  C 1371.90 695.71 1384.19 680.93 1388.24 660.43&#xA;  Q 1391.52 643.81 1391.74 625.75&#xA;  Q 1391.97 606.66 1392.04 580.45&#xA;  Q 1392.11 554.23 1391.98 535.14&#xA;  Q 1391.86 517.08 1388.67 500.44&#xA;  C 1384.73 479.92 1372.52 465.07 1351.40 460.54&#xA;  C 1333.13 456.61 1311.67 458.05 1296.24 469.22&#xA;  C 1282.61 479.09 1277.13 496.63 1275.53 512.51&#xA;  C 1273.31 534.61 1273.86 557.21 1273.80 580.13&#xA;  Z"></path>
<path fill="currentColor" d="&#xA;  M 1746.58 526.29&#xA;  C 1741.22 524.07 1737.19 518.05 1736.34 512.90&#xA;  C 1734.00 498.71 1732.02 481.27 1721.02 470.90&#xA;  Q 1714.33 464.59 1707.29 462.21&#xA;  Q 1692.29 457.15 1673.26 459.28&#xA;  Q 1672.40 459.37 1666.46 460.90&#xA;  C 1646.75 465.98 1637.22 478.45 1631.85 497.94&#xA;  C 1627.04 515.39 1626.06 535.18 1625.77 552.75&#xA;  Q 1625.02 598.11 1626.52 635.99&#xA;  Q 1627.04 649.00 1629.51 661.49&#xA;  Q 1632.68 677.57 1637.05 685.94&#xA;  C 1648.11 707.12 1669.84 712.34 1692.25 710.26&#xA;  Q 1722.09 707.48 1730.36 678.59&#xA;  Q 1733.68 666.99 1735.66 655.66&#xA;  Q 1737.56 644.77 1746.63 640.93&#xA;  Q 1749.71 639.63 1756.00 639.64&#xA;  Q 1800.37 639.69 1807.75 639.68&#xA;  A 7.28 6.89 -36.3 0 1 1809.51 639.90&#xA;  Q 1818.66 642.15 1822.31 649.96&#xA;  Q 1824.57 654.81 1823.99 666.41&#xA;  Q 1822.83 689.64 1815.09 711.36&#xA;  C 1803.87 742.86 1779.23 765.78 1747.51 776.98&#xA;  Q 1717.26 787.66 1683.53 787.67&#xA;  C 1656.09 787.67 1627.40 782.63 1602.97 769.80&#xA;  C 1591.07 763.56 1581.19 755.08 1572.43 745.11&#xA;  C 1558.22 728.95 1549.70 709.19 1544.48 688.29&#xA;  Q 1539.88 669.88 1538.63 647.04&#xA;  C 1536.93 616.19 1537.27 591.21 1537.41 556.83&#xA;  Q 1537.55 523.29 1543.39 492.08&#xA;  Q 1546.26 476.74 1553.27 459.26&#xA;  Q 1560.48 441.26 1574.26 425.77&#xA;  Q 1598.12 398.93 1633.32 389.08&#xA;  Q 1648.22 384.90 1660.50 383.72&#xA;  C 1676.58 382.18 1694.20 382.24 1709.17 383.51&#xA;  Q 1730.41 385.31 1750.52 392.49&#xA;  Q 1762.38 396.73 1772.27 402.76&#xA;  Q 1807.59 424.30 1818.04 465.18&#xA;  Q 1822.09 481.01 1823.61 498.00&#xA;  C 1824.58 508.86 1824.85 522.08 1812.75 526.94&#xA;  Q 1810.12 528.00 1804.09 528.03&#xA;  Q 1765.80 528.21 1753.77 527.96&#xA;  Q 1750.44 527.89 1746.58 526.29&#xA;  Z"></path>
<path fill="currentColor" d="&#xA;  M 1962.24 652.11&#xA;  A 0.75 0.75 0.0 0 0 1961.48 652.87&#xA;  Q 1961.55 667.44 1961.55 754.78&#xA;  Q 1961.55 762.67 1961.30 764.15&#xA;  C 1959.95 772.24 1953.65 777.79 1945.25 777.98&#xA;  Q 1941.33 778.07 1896.47 777.98&#xA;  Q 1886.81 777.96 1883.43 776.45&#xA;  Q 1877.40 773.77 1874.78 767.69&#xA;  Q 1873.38 764.46 1873.39 755.63&#xA;  Q 1873.62 503.20 1873.51 414.25&#xA;  Q 1873.50 408.27 1873.75 406.49&#xA;  C 1875.53 393.88 1884.02 391.44 1895.50 391.48&#xA;  Q 1972.46 391.73 2013.97 391.56&#xA;  C 2036.48 391.47 2058.96 393.61 2079.92 403.10&#xA;  Q 2118.06 420.36 2130.31 460.47&#xA;  Q 2133.24 470.05 2134.75 481.99&#xA;  Q 2138.72 513.39 2136.31 546.25&#xA;  Q 2135.35 559.30 2132.92 570.68&#xA;  Q 2128.29 592.31 2115.01 610.53&#xA;  Q 2105.92 622.98 2092.04 631.82&#xA;  Q 2070.80 645.35 2046.52 648.99&#xA;  C 2035.58 650.63 2023.38 651.95 2011.01 652.16&#xA;  C 1994.37 652.43 1977.85 652.20 1962.24 652.11&#xA;  Z&#xA;  M 1962.29 576.28&#xA;  Q 1979.99 576.24 2005.51 575.78&#xA;  C 2015.59 575.61 2026.24 573.93 2034.59 567.88&#xA;  C 2042.99 561.80 2046.71 550.54 2047.78 540.26&#xA;  Q 2049.81 520.73 2047.24 501.75&#xA;  Q 2046.50 496.29 2044.83 491.21&#xA;  C 2039.92 476.29 2027.08 469.36 2012.11 467.77&#xA;  Q 2008.63 467.40 1994.87 467.36&#xA;  Q 1975.10 467.29 1962.09 467.36&#xA;  A 0.63 0.63 0.0 0 0 1961.46 467.99&#xA;  L 1961.46 575.46&#xA;  A 0.82 0.82 0.0 0 0 1962.29 576.28&#xA;  Z"></path>
<path fill="currentColor" d="&#xA;  M 838.67 816.92&#xA;  Q 832.25 846.90 821.76 893.31&#xA;  Q 819.66 902.58 818.43 908.76&#xA;  Q 816.05 920.76 814.87 924.14&#xA;  Q 808.38 942.91 788.78 940.48&#xA;  C 779.81 939.36 775.03 933.01 770.44 925.13&#xA;  Q 737.73 868.91 711.27 822.76&#xA;  Q 698.88 801.15 697.84 799.39&#xA;  C 678.46 766.63 658.69 731.94 644.56 707.87&#xA;  C 641.04 701.88 637.98 696.10 634.42 690.10&#xA;  Q 616.98 660.68 601.01 632.91&#xA;  Q 596.05 624.28 590.24 614.14&#xA;  C 588.49 611.09 587.30 608.16 585.84 605.45&#xA;  A 6.27 6.19 -64.8 0 1 585.18 603.58&#xA;  C 582.32 588.21 591.97 574.48 607.83 573.85&#xA;  Q 612.06 573.68 618.55 576.15&#xA;  Q 626.64 579.24 629.99 580.56&#xA;  C 652.86 589.65 682.78 599.69 708.99 609.52&#xA;  C 738.14 620.44 773.70 632.97 795.57 641.30&#xA;  C 816.83 649.39 842.61 658.13 864.69 666.44&#xA;  C 893.25 677.20 926.74 689.04 955.42 699.85&#xA;  C 960.35 701.71 965.25 704.18 968.29 708.55&#xA;  Q 975.87 719.44 970.37 732.44&#xA;  Q 967.27 739.78 958.88 743.66&#xA;  C 937.04 753.75 917.87 763.36 895.36 773.65&#xA;  Q 881.36 780.06 862.78 788.78&#xA;  A 0.80 0.80 0.0 0 0 862.63 790.13&#xA;  Q 876.54 800.92 891.06 813.45&#xA;  C 894.67 816.56 898.74 819.85 900.38 823.69&#xA;  C 903.48 830.96 900.81 838.40 895.29 843.79&#xA;  C 888.42 850.49 879.62 849.32 872.79 843.45&#xA;  Q 869.97 841.04 840.22 816.38&#xA;  A 0.96 0.96 0.0 0 0 838.67 816.92&#xA;  Z"></path>
</svg>