<?xml version="1.0" encoding="UTF-8" standalone="no"?>

<svg xmlns="http://www.w3.org/2000/svg" version="1.1" viewBox="0.00 0.00 2160.00 428.00">
<g stroke-width="2.00" fill="none" stroke-linecap="butt">
<path stroke="#7f7f7f" vector-effect="non-scaling-stroke" d="&#xA;  M 1921.99 224.91&#xA;  L 1927.43 235.12&#xA;  A 0.22 0.22 0.0 0 0 1927.85 235.02&#xA;  L 1927.85 224.06&#xA;  A 1.01 1.00 25.5 0 0 1927.62 223.42&#xA;  L 1927.43 223.17"></path>
<path stroke="#7f7f7f" vector-effect="non-scaling-stroke" d="&#xA;  M 1888.08 238.35&#xA;  Q 1887.79 236.73 1886.99 235.75&#xA;  A 0.41 0.41 0.0 0 0 1886.26 236.05&#xA;  L 1886.75 241.36"></path>
</g>
<path fill="currentColor" d="&#xA;  M 461.38 185.29&#xA;  C 466.44 226.57 420.30 247.89 389.93 222.01&#xA;  Q 377.54 211.46 374.24 193.78&#xA;  C 371.84 180.99 367.99 168.45 361.56 156.74&#xA;  Q 331.60 102.23 268.43 90.02&#xA;  C 247.63 86.00 227.01 88.65 206.66 95.62&#xA;  Q 178.95 105.11 158.74 127.50&#xA;  Q 149.84 137.36 144.30 148.13&#xA;  C 138.12 160.14 132.88 172.54 130.94 186.01&#xA;  Q 127.30 211.36 133.62 236.66&#xA;  Q 134.97 242.09 137.00 246.99&#xA;  C 141.18 257.08 145.83 267.73 151.46 275.94&#xA;  C 160.75 289.51 172.37 301.54 186.18 310.65&#xA;  C 193.95 315.77 200.76 320.37 209.52 323.48&#xA;  Q 215.56 325.63 220.28 327.17&#xA;  Q 234.74 331.88 251.75 333.06&#xA;  C 258.13 333.51 266.11 332.80 272.34 334.47&#xA;  Q 284.94 337.86 293.62 346.44&#xA;  C 306.74 359.40 309.88 380.01 302.75 396.96&#xA;  Q 298.93 406.04 289.49 413.29&#xA;  C 279.26 421.15 268.62 422.77 256.03 422.11&#xA;  Q 175.90 417.90 116.76 365.81&#xA;  Q 62.35 317.89 46.82 247.94&#xA;  C 41.36 223.40 40.45 197.32 44.20 172.48&#xA;  Q 46.03 160.34 49.95 145.76&#xA;  C 56.37 121.87 67.21 100.22 82.08 80.24&#xA;  C 103.58 51.36 132.97 29.73 166.53 16.79&#xA;  Q 182.80 10.51 202.65 6.54&#xA;  C 209.29 5.21 219.65 4.04 225.23 3.46&#xA;  Q 244.21 1.47 264.30 3.46&#xA;  C 272.14 4.23 283.73 5.66 293.11 7.80&#xA;  Q 328.73 15.92 357.80 33.44&#xA;  C 376.35 44.61 394.40 58.88 408.93 75.24&#xA;  Q 427.16 95.76 439.07 117.93&#xA;  C 450.27 138.79 458.49 161.70 461.38 185.29&#xA;  Z"></path>
<path fill="currentColor" d="&#xA;  M 293.32 299.03&#xA;  Q 253.66 315.91 214.40 297.77&#xA;  Q 184.58 283.99 168.98 255.26&#xA;  C 165.22 248.33 161.96 241.69 159.98 234.05&#xA;  C 150.95 199.25 160.71 165.56 186.05 140.71&#xA;  C 196.73 130.23 209.01 123.25 222.87 119.36&#xA;  Q 229.68 117.45 240.78 115.56&#xA;  Q 247.00 114.50 252.74 114.98&#xA;  Q 265.09 116.02 271.73 117.80&#xA;  Q 274.19 118.46 280.49 120.14&#xA;  C 299.51 125.19 317.68 138.09 329.44 153.85&#xA;  C 335.07 161.39 341.08 171.67 344.24 180.88&#xA;  Q 352.01 203.51 348.25 229.01&#xA;  Q 348.04 230.38 347.75 231.11&#xA;  A 1.00 1.00 0.0 0 1 346.44 231.67&#xA;  C 331.28 225.45 317.75 221.05 301.87 214.61&#xA;  Q 287.39 208.75 272.11 203.40&#xA;  C 267.40 201.75 263.02 201.82 258.55 204.02&#xA;  Q 247.40 209.49 250.05 223.22&#xA;  Q 250.65 226.28 254.81 232.84&#xA;  Q 261.98 244.15 267.44 253.69&#xA;  C 277.25 270.87 283.76 281.16 293.60 298.17&#xA;  A 0.61 0.60 63.2 0 1 293.32 299.03&#xA;  Z"></path>
<path fill="currentColor" d="&#xA;  M 730.40 211.67&#xA;  Q 730.27 211.39 729.64 206.55&#xA;  C 728.00 194.16 717.39 188.37 705.84 191.53&#xA;  C 696.92 193.98 692.63 201.85 692.48 211.02&#xA;  Q 692.04 235.96 692.39 258.11&#xA;  Q 692.48 264.15 695.42 269.83&#xA;  C 701.72 282.04 722.32 282.76 728.01 269.50&#xA;  Q 730.01 264.87 730.51 259.49&#xA;  Q 730.93 254.97 735.61 255.57&#xA;  Q 741.07 256.28 767.31 258.17&#xA;  Q 768.69 258.27 769.96 259.20&#xA;  A 1.85 1.82 8.4 0 1 770.60 260.05&#xA;  Q 771.20 261.66 771.04 264.99&#xA;  C 770.38 279.11 763.77 293.99 752.29 302.51&#xA;  Q 740.23 311.46 726.26 313.76&#xA;  C 714.13 315.76 699.92 315.35 687.90 311.30&#xA;  C 662.09 302.61 650.84 280.65 650.97 253.71&#xA;  C 651.01 245.37 651.03 234.35 651.00 212.51&#xA;  Q 650.98 190.21 664.78 173.54&#xA;  C 670.21 166.99 679.18 161.92 687.95 159.07&#xA;  C 714.79 150.37 751.55 156.14 765.30 184.43&#xA;  Q 770.32 194.74 771.09 206.73&#xA;  Q 771.36 210.99 767.52 211.23&#xA;  Q 744.16 212.68 734.83 213.12&#xA;  Q 731.67 213.27 731.01 212.58&#xA;  A 3.34 3.20 -80.0 0 1 730.40 211.67&#xA;  Z"></path>
<path fill="currentColor" d="&#xA;  M 603.05 310.64&#xA;  C 589.52 315.64 573.05 316.15 559.22 312.83&#xA;  C 534.42 306.89 518.07 287.23 517.01 261.73&#xA;  Q 516.86 258.05 516.83 218.72&#xA;  Q 516.83 204.24 518.46 197.90&#xA;  Q 521.19 187.29 526.77 178.77&#xA;  C 536.43 164.02 555.12 157.02 572.14 155.61&#xA;  Q 589.48 154.17 606.20 161.35&#xA;  C 626.47 170.05 637.22 190.95 637.83 212.34&#xA;  Q 638.13 222.86 638.11 250.49&#xA;  Q 638.11 263.77 636.77 269.91&#xA;  Q 634.67 279.56 630.42 288.37&#xA;  A 1.49 1.48 -61.4 0 0 630.98 290.28&#xA;  Q 636.04 293.39 642.40 293.85&#xA;  Q 645.31 294.06 645.34 297.26&#xA;  Q 645.50 314.60 645.34 320.50&#xA;  Q 645.27 323.32 644.69 324.71&#xA;  A 2.94 2.93 -80.9 0 1 642.24 326.49&#xA;  C 626.68 327.76 613.06 325.40 604.40 311.11&#xA;  A 1.13 1.12 -25.7 0 0 603.05 310.64&#xA;  Z&#xA;  M 557.91 235.01&#xA;  Q 557.92 246.48 557.96 254.00&#xA;  Q 557.99 260.98 558.96 264.75&#xA;  C 561.21 273.60 567.67 279.35 577.12 279.34&#xA;  C 586.58 279.34 593.02 273.57 595.26 264.72&#xA;  Q 596.22 260.94 596.24 253.96&#xA;  Q 596.26 246.45 596.25 234.97&#xA;  Q 596.24 223.50 596.20 215.98&#xA;  Q 596.17 209.00 595.20 205.23&#xA;  C 592.95 196.38 586.49 190.63 577.04 190.64&#xA;  C 567.58 190.65 561.14 196.41 558.90 205.26&#xA;  Q 557.94 209.04 557.92 216.02&#xA;  Q 557.90 223.54 557.91 235.01&#xA;  Z"></path>
<path fill="currentColor" d="&#xA;  M 2062.66 258.26&#xA;  A 0.87 0.87 0.0 0 0 2061.78 257.35&#xA;  Q 2050.14 257.50 2044.79 257.31&#xA;  C 2040.26 257.16 2039.42 253.90 2039.58 249.51&#xA;  Q 2039.64 247.89 2039.67 229.29&#xA;  Q 2039.68 224.51 2044.78 224.49&#xA;  Q 2056.47 224.43 2097.24 224.62&#xA;  C 2101.64 224.64 2102.46 227.43 2102.47 231.42&#xA;  Q 2102.50 248.39 2102.58 257.78&#xA;  Q 2102.67 268.58 2100.97 275.21&#xA;  Q 2094.89 299.05 2071.90 309.65&#xA;  C 2057.42 316.33 2036.54 316.40 2021.14 311.62&#xA;  C 1996.72 304.04 1983.79 283.85 1983.55 258.76&#xA;  Q 1983.23 224.60 1983.51 210.01&#xA;  C 1983.68 201.33 1986.86 189.74 1991.26 182.37&#xA;  Q 2000.92 166.17 2018.22 159.96&#xA;  Q 2040.79 151.85 2063.88 158.07&#xA;  C 2078.29 161.95 2091.44 171.47 2097.69 185.28&#xA;  Q 2101.79 194.33 2102.54 205.24&#xA;  Q 2102.84 209.55 2099.03 209.71&#xA;  C 2081.52 210.45 2070.66 211.25 2063.98 210.90&#xA;  A 2.18 2.18 0.0 0 1 2061.95 209.13&#xA;  C 2061.05 204.45 2060.79 201.25 2058.96 198.26&#xA;  Q 2054.08 190.33 2044.01 190.58&#xA;  Q 2029.78 190.95 2026.14 204.31&#xA;  C 2024.94 208.71 2025.19 214.67 2025.19 220.07&#xA;  Q 2025.19 229.30 2025.21 256.95&#xA;  Q 2025.22 265.03 2026.76 268.51&#xA;  C 2031.15 278.44 2043.70 281.91 2053.36 277.23&#xA;  C 2060.65 273.71 2062.37 265.93 2062.66 258.26&#xA;  Z"></path>
<path fill="currentColor" d="&#xA;  M 1579.55 193.23&#xA;  L 1579.55 215.40&#xA;  A 1.15 1.15 0.0 0 0 1580.70 216.55&#xA;  Q 1601.35 216.39 1620.50 216.52&#xA;  C 1623.93 216.54 1624.96 219.23 1625.01 222.50&#xA;  Q 1625.15 230.99 1625.05 246.25&#xA;  Q 1625.01 251.36 1620.26 251.39&#xA;  Q 1598.58 251.55 1580.24 251.34&#xA;  A 0.75 0.75 0.0 0 0 1579.48 252.09&#xA;  L 1579.48 275.65&#xA;  A 1.12 1.12 0.0 0 0 1580.60 276.77&#xA;  Q 1628.57 276.92 1641.25 276.86&#xA;  C 1645.36 276.84 1646.19 280.27 1646.18 283.76&#xA;  Q 1646.11 302.54 1646.25 306.25&#xA;  C 1646.35 308.75 1645.34 312.81 1642.30 312.82&#xA;  Q 1629.70 312.87 1544.72 312.87&#xA;  Q 1538.33 312.87 1538.38 306.55&#xA;  Q 1538.74 252.61 1538.34 170.25&#xA;  Q 1538.33 167.81 1538.14 162.25&#xA;  C 1537.98 157.43 1542.71 157.33 1546.79 157.35&#xA;  Q 1571.02 157.46 1641.03 157.38&#xA;  C 1644.77 157.37 1645.94 160.74 1646.00 164.37&#xA;  Q 1646.22 177.67 1646.03 187.75&#xA;  C 1645.93 192.99 1642.49 192.56 1638.00 192.61&#xA;  Q 1608.41 192.95 1580.24 192.54&#xA;  A 0.69 0.68 -89.6 0 0 1579.55 193.23&#xA;  Z"></path>
<path fill="currentColor" d="&#xA;  M 1714.22 157.40&#xA;  Q 1762.88 157.38 1764.16 157.38&#xA;  C 1770.08 157.40 1774.57 156.75 1774.55 163.70&#xA;  Q 1774.50 180.05 1774.60 186.79&#xA;  Q 1774.69 192.71 1769.05 192.71&#xA;  Q 1758.53 192.70 1736.43 192.80&#xA;  A 1.01 1.01 0.0 0 0 1735.42 193.81&#xA;  Q 1735.31 237.96 1735.38 306.99&#xA;  Q 1735.39 311.29 1732.31 312.42&#xA;  Q 1731.41 312.75 1725.64 312.80&#xA;  Q 1719.28 312.84 1714.28 312.85&#xA;  Q 1709.27 312.85 1702.92 312.80&#xA;  Q 1697.14 312.76 1696.24 312.43&#xA;  Q 1693.16 311.31 1693.17 307.01&#xA;  Q 1693.19 237.98 1693.04 193.83&#xA;  A 1.01 1.01 0.0 0 0 1692.03 192.82&#xA;  Q 1669.93 192.73 1659.41 192.75&#xA;  Q 1653.77 192.76 1653.86 186.84&#xA;  Q 1653.95 180.10 1653.89 163.75&#xA;  C 1653.87 156.80 1658.36 157.44 1664.28 157.42&#xA;  Q 1665.55 157.41 1714.22 157.40&#xA;  Z"></path>
<rect fill="currentColor" x="1786.84" y="157.43" width="41.58" height="155.46" rx="5.18"></rect>
<path fill="currentColor" d="&#xA;  M 826.74 259.96&#xA;  A 0.85 0.85 0.0 0 0 825.90 260.81&#xA;  Q 825.95 296.83 825.82 307.22&#xA;  Q 825.76 312.59 820.82 312.76&#xA;  Q 816.44 312.92 789.40 312.67&#xA;  Q 784.45 312.63 784.45 307.24&#xA;  Q 784.43 253.69 784.45 167.27&#xA;  C 784.46 160.93 783.92 157.77 790.98 157.60&#xA;  C 805.59 157.24 823.04 157.44 850.50 157.54&#xA;  C 871.77 157.61 891.16 167.95 898.48 188.42&#xA;  Q 904.67 205.71 900.19 223.39&#xA;  Q 894.80 244.67 875.95 253.92&#xA;  C 860.87 261.31 848.08 259.72 826.74 259.96&#xA;  Z&#xA;  M 825.88 193.69&#xA;  L 825.94 224.57&#xA;  A 1.21 1.21 0.0 0 0 827.15 225.78&#xA;  L 844.82 225.75&#xA;  A 16.04 15.50 -0.1 0 0 860.83 210.22&#xA;  L 860.83 207.92&#xA;  A 16.04 15.50 -0.1 0 0 844.76 192.45&#xA;  L 827.09 192.48&#xA;  A 1.21 1.21 0.0 0 0 825.88 193.69&#xA;  Z"></path>
<path fill="currentColor" d="&#xA;  M 1027.04 215.88&#xA;  Q 1027.45 215.88 1027.83 215.15&#xA;  Q 1041.46 189.06 1055.29 161.78&#xA;  C 1056.95 158.50 1059.62 157.55 1063.42 157.50&#xA;  Q 1083.98 157.23 1092.98 157.75&#xA;  C 1097.04 157.99 1097.38 161.00 1097.39 164.59&#xA;  Q 1097.39 179.93 1097.40 308.26&#xA;  Q 1097.40 311.02 1094.32 312.68&#xA;  A 1.36 1.30 -57.6 0 1 1093.71 312.83&#xA;  L 1060.22 312.83&#xA;  A 1.99 1.96 -27.5 0 1 1059.11 312.49&#xA;  Q 1056.21 310.51 1056.21 307.64&#xA;  Q 1056.25 249.52 1056.15 235.97&#xA;  A 0.26 0.26 0.0 0 0 1055.70 235.79&#xA;  Q 1055.25 236.25 1055.08 236.59&#xA;  Q 1052.99 240.59 1041.45 264.21&#xA;  Q 1039.98 267.21 1036.50 267.15&#xA;  Q 1031.55 267.06 1027.02 267.06&#xA;  Q 1022.50 267.06 1017.54 267.15&#xA;  Q 1014.07 267.20 1012.60 264.20&#xA;  Q 1001.07 240.57 998.99 236.57&#xA;  Q 998.82 236.23 998.37 235.77&#xA;  A 0.26 0.26 0.0 0 0 997.92 235.95&#xA;  Q 997.81 249.50 997.81 307.62&#xA;  Q 997.81 310.49 994.91 312.47&#xA;  A 1.99 1.96 27.6 0 1 993.80 312.81&#xA;  L 960.31 312.79&#xA;  A 1.36 1.30 57.6 0 1 959.70 312.64&#xA;  Q 956.62 310.98 956.62 308.22&#xA;  Q 956.71 179.89 956.72 164.55&#xA;  C 956.73 160.96 957.08 157.95 961.14 157.71&#xA;  Q 970.14 157.19 990.70 157.48&#xA;  C 994.50 157.53 997.17 158.48 998.82 161.76&#xA;  Q 1012.64 189.05 1026.25 215.15&#xA;  Q 1026.63 215.88 1027.04 215.88&#xA;  Z"></path>
<path fill="currentColor" d="&#xA;  M 1159.01 284.06&#xA;  A 0.62 0.60 7.4 0 0 1158.42 284.50&#xA;  Q 1154.50 298.17 1151.74 306.75&#xA;  Q 1151.02 309.00 1149.45 311.71&#xA;  A 2.11 2.10 -75.2 0 1 1147.67 312.75&#xA;  Q 1138.52 312.89 1115.22 312.80&#xA;  Q 1111.41 312.79 1110.47 311.95&#xA;  C 1107.34 309.16 1110.05 303.22 1111.48 298.98&#xA;  Q 1118.68 277.60 1127.92 248.88&#xA;  Q 1140.23 210.67 1155.03 165.05&#xA;  C 1156.60 160.21 1156.70 157.64 1162.01 157.57&#xA;  Q 1190.20 157.22 1201.23 157.72&#xA;  Q 1204.96 157.89 1206.32 162.02&#xA;  C 1216.08 191.66 1223.57 214.66 1233.85 246.69&#xA;  C 1239.67 264.82 1245.15 280.39 1250.85 297.84&#xA;  C 1252.18 301.90 1257.75 312.82 1249.28 312.85&#xA;  Q 1231.32 312.91 1221.27 312.84&#xA;  C 1216.06 312.80 1212.88 313.40 1211.17 308.55&#xA;  Q 1208.74 301.65 1203.79 285.18&#xA;  A 1.58 1.56 -8.1 0 0 1202.28 284.06&#xA;  L 1159.01 284.06&#xA;  Z&#xA;  M 1167.50 251.16&#xA;  A 0.37 0.37 0.0 0 0 1167.86 251.63&#xA;  L 1193.88 251.77&#xA;  A 0.37 0.37 0.0 0 0 1194.24 251.30&#xA;  L 1181.46 205.63&#xA;  A 0.37 0.37 0.0 0 0 1180.75 205.63&#xA;  L 1167.50 251.16&#xA;  Z"></path>
<path fill="currentColor" d="&#xA;  M 1308.04 255.15&#xA;  A 0.91 0.90 -89.7 0 0 1307.14 256.05&#xA;  Q 1307.04 279.24 1307.13 305.57&#xA;  C 1307.14 309.96 1306.36 312.95 1301.55 312.86&#xA;  Q 1294.97 312.72 1271.41 312.85&#xA;  Q 1265.73 312.89 1265.70 307.25&#xA;  Q 1265.58 284.61 1265.67 163.73&#xA;  Q 1265.68 157.42 1271.46 157.42&#xA;  Q 1301.89 157.42 1335.51 157.45&#xA;  C 1369.88 157.48 1389.78 188.27 1382.79 220.00&#xA;  Q 1378.35 240.13 1360.36 249.53&#xA;  A 1.18 1.17 64.1 0 0 1359.84 251.04&#xA;  Q 1371.66 277.76 1384.66 304.86&#xA;  C 1386.16 307.98 1386.82 312.72 1381.78 312.76&#xA;  Q 1372.00 312.85 1348.27 312.80&#xA;  C 1344.59 312.80 1343.22 310.83 1341.77 307.48&#xA;  Q 1331.97 284.82 1320.02 255.96&#xA;  A 1.31 1.30 -11.0 0 0 1318.81 255.15&#xA;  L 1308.04 255.15&#xA;  Z&#xA;  M 1307.06 193.57&#xA;  L 1307.16 221.79&#xA;  A 1.06 1.06 0.0 0 0 1308.22 222.85&#xA;  L 1327.67 222.78&#xA;  A 14.99 14.09 -0.2 0 0 1342.61 208.64&#xA;  L 1342.61 206.48&#xA;  A 14.99 14.09 -0.2 0 0 1327.57 192.44&#xA;  L 1308.12 192.51&#xA;  A 1.06 1.06 0.0 0 0 1307.06 193.57&#xA;  Z"></path>
<path fill="currentColor" d="&#xA;  M 1441.19 215.27&#xA;  Q 1443.88 211.03 1444.05 210.80&#xA;  Q 1470.14 174.18 1479.38 160.88&#xA;  Q 1480.98 158.56 1484.55 157.59&#xA;  A 2.62 2.30 -48.7 0 1 1485.17 157.51&#xA;  Q 1499.32 157.32 1521.00 157.43&#xA;  C 1523.85 157.45 1526.15 159.21 1524.61 162.25&#xA;  Q 1523.40 164.62 1522.45 165.95&#xA;  Q 1503.84 192.04 1482.07 222.01&#xA;  A 1.63 1.61 -41.4 0 0 1481.95 223.73&#xA;  L 1527.63 308.00&#xA;  A 1.28 1.26 -63.0 0 1 1527.75 308.38&#xA;  Q 1528.23 312.87 1523.54 312.85&#xA;  Q 1511.09 312.81 1487.53 312.89&#xA;  C 1484.22 312.90 1480.99 306.36 1479.53 303.59&#xA;  Q 1472.58 290.35 1453.38 254.88&#xA;  A 0.88 0.88 0.0 0 0 1451.90 254.78&#xA;  L 1440.95 269.64&#xA;  A 4.10 4.05 -27.5 0 0 1440.15 272.12&#xA;  Q 1440.38 295.04 1440.22 308.21&#xA;  Q 1440.19 311.07 1438.25 312.23&#xA;  Q 1437.26 312.82 1433.69 312.84&#xA;  Q 1413.34 312.91 1403.14 312.83&#xA;  C 1399.70 312.81 1398.50 309.05 1398.51 306.14&#xA;  Q 1398.57 277.84 1398.50 175.50&#xA;  Q 1398.50 167.68 1398.62 162.31&#xA;  C 1398.75 156.79 1404.57 157.44 1408.44 157.42&#xA;  Q 1430.30 157.29 1435.18 157.65&#xA;  Q 1440.25 158.01 1440.22 163.58&#xA;  Q 1440.10 184.22 1440.32 215.02&#xA;  A 0.47 0.47 0.0 0 0 1441.19 215.27&#xA;  Z"></path>
<path fill="currentColor" d="&#xA;  M 1921.99 224.91&#xA;  L 1927.43 235.12&#xA;  A 0.22 0.22 0.0 0 0 1927.85 235.02&#xA;  L 1927.85 224.06&#xA;  A 1.01 1.00 25.5 0 0 1927.62 223.42&#xA;  L 1927.43 223.17&#xA;  Q 1927.99 222.66 1927.99 222.00&#xA;  Q 1928.01 193.24 1927.94 162.75&#xA;  C 1927.93 157.96 1931.54 157.51 1936.00 157.46&#xA;  Q 1949.72 157.33 1963.24 157.55&#xA;  C 1969.77 157.66 1968.67 163.66 1968.69 168.00&#xA;  Q 1969.00 255.90 1969.00 258.25&#xA;  Q 1969.08 283.25 1968.90 307.31&#xA;  Q 1968.87 310.41 1966.72 312.33&#xA;  A 1.52 1.51 23.2 0 1 1965.73 312.72&#xA;  Q 1953.93 312.91 1935.04 312.82&#xA;  C 1931.76 312.80 1930.49 312.59 1928.76 309.99&#xA;  Q 1925.92 305.71 1923.93 302.09&#xA;  Q 1901.10 260.56 1891.63 243.63&#xA;  Q 1890.41 241.45 1888.08 238.35&#xA;  Q 1887.79 236.73 1886.99 235.75&#xA;  A 0.41 0.41 0.0 0 0 1886.26 236.05&#xA;  L 1886.75 241.36&#xA;  Q 1886.66 243.82 1886.64 246.50&#xA;  Q 1886.41 278.52 1886.50 307.03&#xA;  Q 1886.51 310.09 1884.69 311.98&#xA;  C 1883.70 313.01 1881.66 312.81 1880.21 312.82&#xA;  Q 1865.08 312.95 1849.17 312.72&#xA;  A 3.29 3.27 74.5 0 1 1846.41 311.15&#xA;  Q 1845.09 308.99 1845.09 306.50&#xA;  Q 1845.15 239.55 1845.11 163.00&#xA;  C 1845.11 157.40 1849.46 157.54 1853.92 157.47&#xA;  Q 1871.32 157.23 1880.97 157.58&#xA;  Q 1884.66 157.71 1886.87 161.64&#xA;  C 1889.29 165.92 1893.05 172.14 1895.56 176.91&#xA;  Q 1905.91 196.55 1918.16 218.60&#xA;  Q 1920.00 221.90 1921.99 224.91&#xA;  Z"></path>
<path fill="currentColor" d="&#xA;  M 403.43 311.73&#xA;  A 0.45 0.44 -45.3 0 0 403.43 312.42&#xA;  Q 423.62 329.06 451.72 352.98&#xA;  C 458.42 358.68 460.20 367.19 455.40 374.71&#xA;  Q 451.84 380.31 446.36 382.20&#xA;  C 439.52 384.55 433.66 381.88 428.51 377.49&#xA;  Q 416.78 367.49 380.91 337.27&#xA;  A 0.37 0.36 26.7 0 0 380.32 337.46&#xA;  Q 377.38 350.44 374.92 363.19&#xA;  C 373.31 371.53 369.63 379.56 359.27 376.80&#xA;  C 355.50 375.80 352.54 372.55 350.66 369.35&#xA;  Q 318.83 315.20 301.58 285.70&#xA;  Q 288.96 264.13 282.54 253.55&#xA;  Q 272.25 236.58 263.71 221.32&#xA;  Q 262.67 219.47 262.75 218.57&#xA;  C 263.01 215.60 266.11 214.82 268.64 215.85&#xA;  Q 271.20 216.91 282.95 221.39&#xA;  Q 354.04 248.47 358.10 249.97&#xA;  Q 371.99 255.14 427.20 276.54&#xA;  C 433.30 278.90 438.62 281.01 439.55 287.92&#xA;  C 440.45 294.57 435.12 298.59 429.45 300.96&#xA;  Q 415.13 306.92 405.70 310.44&#xA;  Q 404.42 310.91 403.43 311.73&#xA;  Z"></path>
<path fill="white" d="&#xA;  M 1927.43 223.17&#xA;  L 1927.62 223.42&#xA;  A 1.01 1.00 25.5 0 1 1927.85 224.06&#xA;  L 1927.85 235.02&#xA;  A 0.22 0.22 0.0 0 1 1927.43 235.12&#xA;  L 1921.99 224.91&#xA;  L 1927.43 223.17&#xA;  Z"></path>
<path fill="white" d="&#xA;  M 1888.08 238.35&#xA;  L 1886.75 241.36&#xA;  L 1886.26 236.05&#xA;  A 0.41 0.41 0.0 0 1 1886.99 235.75&#xA;  Q 1887.79 236.73 1888.08 238.35&#xA;  Z"></path>
</svg>